<svg xmlns="http://www.w3.org/2000/svg" viewBox="0 0 400 320" fill="none">
  <!-- Upper left wing -->
  <path d="M200 155 C180 130 140 80 80 55 C40 38 10 50 5 75 C0 100 25 135 60 150 C95 165 150 160 200 155Z"
        fill="#E8720C" stroke="#1a1a1a" stroke-width="2.5"/>
  <!-- Upper left wing inner detail -->
  <path d="M200 155 C180 130 140 80 80 55 C40 38 10 50 5 75 C0 100 25 135 60 150 C95 165 150 160 200 155Z"
        fill="url(#wingGradLeft)" opacity="0.4"/>
  <!-- Upper left wing veins -->
  <path d="M200 155 C170 120 120 75 70 58" stroke="#1a1a1a" stroke-width="1.5" opacity="0.6"/>
  <path d="M200 155 C165 130 110 95 55 88" stroke="#1a1a1a" stroke-width="1.2" opacity="0.5"/>
  <path d="M200 155 C175 140 135 120 85 125" stroke="#1a1a1a" stroke-width="1.2" opacity="0.5"/>

  <!-- Black border upper left -->
  <path d="M200 155 C180 130 140 80 80 55 C40 38 10 50 5 75 C0 100 25 135 60 150 C95 165 150 160 200 155Z"
        fill="none" stroke="#1a1a1a" stroke-width="12" stroke-opacity="0.85"
        stroke-dasharray="0" paint-order="stroke"/>
  <!-- White dots upper left wing border -->
  <circle cx="22" cy="80" r="4.5" fill="white" opacity="0.9"/>
  <circle cx="35" cy="62" r="4" fill="white" opacity="0.9"/>
  <circle cx="55" cy="52" r="4" fill="white" opacity="0.9"/>
  <circle cx="78" cy="46" r="3.5" fill="white" opacity="0.9"/>
  <circle cx="100" cy="44" r="3.5" fill="white" opacity="0.9"/>
  <circle cx="120" cy="46" r="3.5" fill="white" opacity="0.9"/>
  <circle cx="140" cy="52" r="3" fill="white" opacity="0.9"/>
  <circle cx="158" cy="62" r="3" fill="white" opacity="0.9"/>
  <circle cx="172" cy="76" r="3" fill="white" opacity="0.9"/>
  <circle cx="14" cy="100" r="4" fill="white" opacity="0.9"/>
  <circle cx="12" cy="118" r="3.5" fill="white" opacity="0.9"/>

  <!-- Upper right wing -->
  <path d="M200 155 C220 130 260 80 320 55 C360 38 390 50 395 75 C400 100 375 135 340 150 C305 165 250 160 200 155Z"
        fill="#E8720C" stroke="#1a1a1a" stroke-width="2.5"/>
  <path d="M200 155 C220 130 260 80 320 55 C360 38 390 50 395 75 C400 100 375 135 340 150 C305 165 250 160 200 155Z"
        fill="url(#wingGradRight)" opacity="0.4"/>
  <!-- Upper right wing veins -->
  <path d="M200 155 C230 120 280 75 330 58" stroke="#1a1a1a" stroke-width="1.5" opacity="0.6"/>
  <path d="M200 155 C235 130 290 95 345 88" stroke="#1a1a1a" stroke-width="1.2" opacity="0.5"/>
  <path d="M200 155 C225 140 265 120 315 125" stroke="#1a1a1a" stroke-width="1.2" opacity="0.5"/>

  <!-- Black border upper right -->
  <path d="M200 155 C220 130 260 80 320 55 C360 38 390 50 395 75 C400 100 375 135 340 150 C305 165 250 160 200 155Z"
        fill="none" stroke="#1a1a1a" stroke-width="12" stroke-opacity="0.85"/>
  <!-- White dots upper right -->
  <circle cx="378" cy="80" r="4.5" fill="white" opacity="0.9"/>
  <circle cx="365" cy="62" r="4" fill="white" opacity="0.9"/>
  <circle cx="345" cy="52" r="4" fill="white" opacity="0.9"/>
  <circle cx="322" cy="46" r="3.5" fill="white" opacity="0.9"/>
  <circle cx="300" cy="44" r="3.5" fill="white" opacity="0.9"/>
  <circle cx="280" cy="46" r="3.5" fill="white" opacity="0.9"/>
  <circle cx="260" cy="52" r="3" fill="white" opacity="0.9"/>
  <circle cx="242" cy="62" r="3" fill="white" opacity="0.9"/>
  <circle cx="228" cy="76" r="3" fill="white" opacity="0.9"/>
  <circle cx="386" cy="100" r="4" fill="white" opacity="0.9"/>
  <circle cx="388" cy="118" r="3.5" fill="white" opacity="0.9"/>

  <!-- Lower left wing -->
  <path d="M200 165 C175 175 120 190 70 210 C30 225 8 248 15 268 C22 288 60 295 100 285 C145 273 180 240 200 210 L200 165Z"
        fill="#E8720C" stroke="#1a1a1a" stroke-width="2.5"/>
  <path d="M200 165 C175 175 120 190 70 210 C30 225 8 248 15 268 C22 288 60 295 100 285 C145 273 180 240 200 210 L200 165Z"
        fill="url(#wingGradLowerLeft)" opacity="0.35"/>
  <!-- Black border lower left -->
  <path d="M200 165 C175 175 120 190 70 210 C30 225 8 248 15 268 C22 288 60 295 100 285 C145 273 180 240 200 210 L200 165Z"
        fill="none" stroke="#1a1a1a" stroke-width="12" stroke-opacity="0.85"/>
  <!-- White dots lower left -->
  <circle cx="25" cy="270" r="4" fill="white" opacity="0.9"/>
  <circle cx="18" cy="252" r="3.5" fill="white" opacity="0.9"/>
  <circle cx="22" cy="234" r="3.5" fill="white" opacity="0.9"/>
  <circle cx="35" cy="218" r="3" fill="white" opacity="0.9"/>
  <circle cx="55" cy="208" r="3" fill="white" opacity="0.9"/>
  <circle cx="80" cy="202" r="3" fill="white" opacity="0.9"/>
  <circle cx="105" cy="200" r="3" fill="white" opacity="0.9"/>
  <circle cx="128" cy="202" r="3" fill="white" opacity="0.9"/>
  <circle cx="148" cy="208" r="3" fill="white" opacity="0.9"/>

  <!-- Lower right wing -->
  <path d="M200 165 C225 175 280 190 330 210 C370 225 392 248 385 268 C378 288 340 295 300 285 C255 273 220 240 200 210 L200 165Z"
        fill="#E8720C" stroke="#1a1a1a" stroke-width="2.5"/>
  <path d="M200 165 C225 175 280 190 330 210 C370 225 392 248 385 268 C378 288 340 295 300 285 C255 273 220 240 200 210 L200 165Z"
        fill="url(#wingGradLowerRight)" opacity="0.35"/>
  <!-- Black border lower right -->
  <path d="M200 165 C225 175 280 190 330 210 C370 225 392 248 385 268 C378 288 340 295 300 285 C255 273 220 240 200 210 L200 165Z"
        fill="none" stroke="#1a1a1a" stroke-width="12" stroke-opacity="0.85"/>
  <!-- White dots lower right -->
  <circle cx="375" cy="270" r="4" fill="white" opacity="0.9"/>
  <circle cx="382" cy="252" r="3.5" fill="white" opacity="0.9"/>
  <circle cx="378" cy="234" r="3.5" fill="white" opacity="0.9"/>
  <circle cx="365" cy="218" r="3" fill="white" opacity="0.9"/>
  <circle cx="345" cy="208" r="3" fill="white" opacity="0.9"/>
  <circle cx="320" cy="202" r="3" fill="white" opacity="0.9"/>
  <circle cx="295" cy="200" r="3" fill="white" opacity="0.9"/>
  <circle cx="272" cy="202" r="3" fill="white" opacity="0.9"/>
  <circle cx="252" cy="208" r="3" fill="white" opacity="0.9"/>

  <!-- Body -->
  <ellipse cx="200" cy="175" rx="7" ry="60" fill="#1a1a1a"/>
  <ellipse cx="200" cy="148" rx="5" ry="14" fill="#2d2d2d"/>
  <!-- Head -->
  <circle cx="200" cy="132" r="8" fill="#1a1a1a"/>
  <!-- Antennae -->
  <path d="M197 126 C188 108 175 92 168 78" stroke="#1a1a1a" stroke-width="2" stroke-linecap="round"/>
  <path d="M203 126 C212 108 225 92 232 78" stroke="#1a1a1a" stroke-width="2" stroke-linecap="round"/>
  <circle cx="167" cy="76" r="4" fill="#1a1a1a"/>
  <circle cx="233" cy="76" r="4" fill="#1a1a1a"/>

  <!-- Gradients -->
  <defs>
    <radialGradient id="wingGradLeft" cx="40%" cy="40%">
      <stop offset="0%" stop-color="#F5A623"/>
      <stop offset="100%" stop-color="#C0570A"/>
    </radialGradient>
    <radialGradient id="wingGradRight" cx="60%" cy="40%">
      <stop offset="0%" stop-color="#F5A623"/>
      <stop offset="100%" stop-color="#C0570A"/>
    </radialGradient>
    <radialGradient id="wingGradLowerLeft" cx="40%" cy="60%">
      <stop offset="0%" stop-color="#F5A623"/>
      <stop offset="100%" stop-color="#C0570A"/>
    </radialGradient>
    <radialGradient id="wingGradLowerRight" cx="60%" cy="60%">
      <stop offset="0%" stop-color="#F5A623"/>
      <stop offset="100%" stop-color="#C0570A"/>
    </radialGradient>
  </defs>
</svg>
